<?xml version="1.0" encoding="UTF-8"?><svg id="Layer_2" xmlns="http://www.w3.org/2000/svg" viewBox="0 0 188.9 78.85"><defs><style>.cls-1{fill:#0071ce;}.cls-2{fill:#fff;}.cls-3{fill:#f088b6;}.cls-4{fill:#e81f76;}</style></defs><g id="Layer_1-2"><g><path class="cls-1" d="M4.63,69.91S0,67.09,0,58.37V19.3S-.14,8.62,10.67,8.62H46.5s10.41-.77,10.41,10.41v26.02s-.19,11.18-11.18,11.18H16.86s-12.5,.18-12.24,13.68Z"/><path class="cls-4" d="M91.86,61.29s4.63-4.77,4.63-13.49c0-6.94,0-37.11,0-37.11,0,0,.14-10.67-10.67-10.67-8.13,0-6.94,0-47.88,0,0,0-7.57-.77-7.57,10.41v26.02s.19,11.18,11.18,11.18c12.88,0,11.69,0,33.15,0,0,0,15.59-1.11,17.17,13.68Z"/></g><path class="cls-3" d="M56.9,19.03c0-11.18-10.41-10.41-10.41-10.41H30.46c-.06,.56-.1,1.16-.1,1.79v26.02s.19,11.18,11.18,11.18h14.99c.35-1.49,.37-2.56,.37-2.56V19.03Z"/><path class="cls-2" d="M17.63,59.67c-5.3,0-9.59,4.29-9.59,9.59s4.29,9.59,9.59,9.59,9.59-4.29,9.59-9.59-4.29-9.59-9.59-9.59Zm0,14.8c-2.88,0-5.21-2.33-5.21-5.21s2.33-5.21,5.21-5.21,5.21,2.33,5.21,5.21-2.33,5.21-5.21,5.21Z"/><path class="cls-2" d="M74.82,51.7c-7.5,0-13.58,6.08-13.58,13.58s6.08,13.58,13.58,13.58,13.58-6.08,13.58-13.58-6.08-13.58-13.58-13.58Zm0,20.96c-4.08,0-7.38-3.31-7.38-7.38s3.31-7.38,7.38-7.38,7.38,3.31,7.38,7.38-3.31,7.38-7.38,7.38Z"/><g><path class="cls-2" d="M108.82,28.44l-4-9.41c-.07-.15-.11-.29-.11-.47,0-.54,.44-.98,1.01-.98,.52,0,.87,.29,1.03,.72l3.3,8.25,3.35-8.31c.13-.34,.49-.65,.96-.65,.56,0,1,.42,1,.96,0,.15-.05,.31-.1,.43l-4.02,9.47c-.21,.51-.59,.82-1.16,.82h-.11c-.56,0-.93-.31-1.14-.82Z"/><path class="cls-2" d="M115.61,24.83v-.03c0-2.47,1.96-4.51,4.61-4.51s4.59,2.01,4.59,4.48v.03c0,2.45-1.96,4.49-4.62,4.49s-4.57-2.01-4.57-4.46Zm7.22,0v-.03c0-1.52-1.09-2.78-2.65-2.78s-2.6,1.24-2.6,2.74v.03c0,1.5,1.09,2.76,2.63,2.76s2.61-1.24,2.61-2.73Z"/><path class="cls-2" d="M126.69,18.07c0-.54,.43-.98,.98-.98s1,.44,1,.98v10.13c0,.56-.44,.98-1,.98s-.98-.42-.98-.98v-10.13Z"/><path class="cls-2" d="M138.66,28.2c0,.54-.44,.98-1,.98s-1-.42-1-.98v-.44c-.56,.82-1.36,1.52-2.69,1.52-1.94,0-3.07-1.31-3.07-3.32v-4.59c0-.56,.44-1,.98-1s1,.44,1,1v4c0,1.34,.67,2.09,1.85,2.09s1.94-.78,1.94-2.12v-3.97c0-.56,.44-1,1-1s1,.44,1,1v6.83Z"/><path class="cls-2" d="M140.88,21.37c0-.56,.42-1,.98-1s1,.44,1,1v.42c.55-.8,1.35-1.5,2.69-1.5,1.94,0,3.07,1.31,3.07,3.3v4.61c0,.56-.42,.98-.98,.98s-1-.42-1-.98v-4c0-1.34-.67-2.11-1.85-2.11s-1.94,.8-1.94,2.14v3.97c0,.56-.44,.98-1,.98s-.98-.42-.98-.98v-6.83Z"/><path class="cls-2" d="M151.18,26.71v-4.54h-.33c-.47,0-.85-.38-.85-.85s.37-.85,.85-.85h.33v-1.47c0-.54,.44-.98,1-.98s.98,.44,.98,.98v1.47h1.55c.47,0,.87,.38,.87,.85s-.39,.85-.87,.85h-1.55v4.23c0,.77,.39,1.08,1.06,1.08,.23,0,.43-.05,.49-.05,.44,0,.83,.36,.83,.82,0,.36-.24,.65-.52,.77-.43,.15-.83,.23-1.36,.23-1.45,0-2.48-.64-2.48-2.53Z"/><path class="cls-2" d="M160.95,29.29c-2.5,0-4.43-1.81-4.43-4.48v-.03c0-2.47,1.75-4.49,4.21-4.49,2.74,0,4.1,2.25,4.1,4.25,0,.56-.43,.95-.93,.95h-5.41c.21,1.4,1.21,2.19,2.48,2.19,.83,0,1.49-.29,2.04-.75,.15-.11,.28-.18,.51-.18,.44,0,.78,.34,.78,.8,0,.25-.11,.46-.26,.6-.78,.7-1.76,1.14-3.1,1.14Zm1.96-5.11c-.13-1.27-.88-2.27-2.19-2.27-1.21,0-2.06,.93-2.24,2.27h4.43Z"/><path class="cls-2" d="M170.57,29.29c-2.5,0-4.43-1.81-4.43-4.48v-.03c0-2.47,1.75-4.49,4.21-4.49,2.74,0,4.1,2.25,4.1,4.25,0,.56-.43,.95-.93,.95h-5.41c.21,1.4,1.21,2.19,2.48,2.19,.83,0,1.49-.29,2.04-.75,.15-.11,.28-.18,.51-.18,.44,0,.78,.34,.78,.8,0,.25-.11,.46-.26,.6-.78,.7-1.76,1.14-3.1,1.14Zm1.96-5.11c-.13-1.27-.88-2.27-2.19-2.27-1.21,0-2.06,.93-2.24,2.27h4.43Z"/><path class="cls-2" d="M176.24,21.37c0-.56,.42-1,.98-1s1,.44,1,1v.88c.46-1.08,1.31-1.89,2.17-1.89,.62,0,.98,.41,.98,.98,0,.52-.34,.87-.78,.95-1.4,.24-2.37,1.32-2.37,3.36v2.55c0,.54-.44,.98-1,.98s-.98-.42-.98-.98v-6.83Z"/><path class="cls-2" d="M182.41,28.23c-.21-.11-.37-.36-.37-.69,0-.44,.34-.8,.8-.8,.16,0,.31,.05,.43,.11,.83,.56,1.7,.83,2.48,.83,.85,0,1.34-.36,1.34-.93v-.03c0-.67-.91-.9-1.93-1.21-1.27-.36-2.7-.88-2.7-2.53v-.03c0-1.63,1.36-2.63,3.07-2.63,.91,0,1.88,.26,2.71,.7,.28,.15,.47,.41,.47,.75,0,.46-.36,.8-.82,.8-.16,0-.26-.03-.39-.1-.7-.36-1.42-.59-2.03-.59-.77,0-1.21,.36-1.21,.85v.03c0,.64,.93,.9,1.94,1.23,1.26,.39,2.68,.96,2.68,2.52v.03c0,1.81-1.4,2.71-3.2,2.71-1.09,0-2.29-.34-3.28-1.03Z"/><path class="cls-2" d="M104.99,39.09v-.03c0-3.22,2.48-5.91,5.99-5.91s5.96,2.66,5.96,5.88v.03c0,3.22-2.48,5.91-5.99,5.91s-5.96-2.66-5.96-5.88Zm9.85,0v-.03c0-2.22-1.62-4.07-3.89-4.07s-3.86,1.81-3.86,4.03v.03c0,2.22,1.62,4.05,3.89,4.05s3.86-1.8,3.86-4.02Z"/><path class="cls-2" d="M118.91,37.05c0-.56,.43-1,.98-1s1,.44,1,1v.42c.56-.8,1.36-1.5,2.69-1.5,1.94,0,3.07,1.31,3.07,3.3v4.61c0,.56-.43,.98-.98,.98s-1-.42-1-.98v-4c0-1.34-.67-2.11-1.85-2.11s-1.94,.8-1.94,2.14v3.97c0,.56-.44,.98-1,.98s-.98-.42-.98-.98v-6.83Z"/><path class="cls-2" d="M104.8,50.32c-.05-.11-.08-.26-.08-.39,0-.56,.47-.98,1.03-.98,.49,0,.87,.31,1,.73l2.63,7.86,2.58-7.82c.16-.47,.51-.8,1.01-.8h.15c.51,0,.87,.33,1.01,.8l2.58,7.82,2.63-7.87c.15-.41,.49-.72,.98-.72,.54,0,1,.42,1,.96,0,.13-.05,.29-.1,.41l-3.38,9.47c-.18,.51-.56,.83-1.05,.83h-.2c-.49,0-.85-.31-1.03-.83l-2.55-7.46-2.55,7.46c-.18,.52-.55,.83-1.05,.83h-.2c-.49,0-.85-.31-1.05-.83l-3.38-9.47Z"/><path class="cls-2" d="M122.98,49.43c0-.54,.43-.98,.98-.98s1,.44,1,.98v3.72c.56-.8,1.36-1.5,2.69-1.5,1.94,0,3.07,1.31,3.07,3.3v4.61c0,.56-.43,.98-.98,.98s-1-.42-1-.98v-4c0-1.34-.67-2.11-1.85-2.11s-1.94,.8-1.94,2.14v3.97c0,.56-.44,.98-1,.98s-.98-.42-.98-.98v-10.13Z"/><path class="cls-2" d="M136.82,60.66c-2.5,0-4.43-1.81-4.43-4.48v-.03c0-2.47,1.75-4.49,4.21-4.49,2.74,0,4.1,2.25,4.1,4.25,0,.56-.43,.95-.93,.95h-5.41c.21,1.4,1.21,2.19,2.48,2.19,.83,0,1.49-.29,2.04-.75,.15-.11,.28-.18,.51-.18,.44,0,.78,.34,.78,.8,0,.25-.11,.46-.26,.6-.78,.7-1.76,1.14-3.1,1.14Zm1.96-5.11c-.13-1.27-.88-2.27-2.19-2.27-1.21,0-2.06,.93-2.24,2.27h4.43Z"/><path class="cls-2" d="M146.44,60.66c-2.5,0-4.43-1.81-4.43-4.48v-.03c0-2.47,1.75-4.49,4.21-4.49,2.74,0,4.1,2.25,4.1,4.25,0,.56-.43,.95-.93,.95h-5.41c.21,1.4,1.21,2.19,2.48,2.19,.83,0,1.49-.29,2.04-.75,.15-.11,.28-.18,.51-.18,.44,0,.78,.34,.78,.8,0,.25-.11,.46-.26,.6-.78,.7-1.76,1.14-3.1,1.14Zm1.96-5.11c-.13-1.27-.88-2.27-2.19-2.27-1.21,0-2.06,.93-2.24,2.27h4.43Z"/><path class="cls-2" d="M152.22,49.43c0-.54,.42-.98,.98-.98s1,.44,1,.98v10.13c0,.56-.44,.98-1,.98s-.98-.42-.98-.98v-10.13Z"/><path class="cls-2" d="M156.21,59.59c-.21-.11-.37-.36-.37-.69,0-.44,.34-.8,.8-.8,.16,0,.31,.05,.43,.11,.83,.56,1.7,.83,2.48,.83,.85,0,1.34-.36,1.34-.93v-.03c0-.67-.91-.9-1.93-1.21-1.27-.36-2.7-.88-2.7-2.53v-.03c0-1.63,1.36-2.63,3.07-2.63,.91,0,1.88,.26,2.71,.7,.28,.15,.47,.41,.47,.75,0,.46-.36,.8-.82,.8-.16,0-.26-.03-.39-.1-.7-.36-1.42-.59-2.03-.59-.77,0-1.21,.36-1.21,.85v.03c0,.64,.93,.9,1.94,1.23,1.26,.39,2.68,.96,2.68,2.52v.03c0,1.81-1.4,2.71-3.2,2.71-1.09,0-2.29-.34-3.28-1.03Z"/></g><path class="cls-2" d="M87.74,17.62c-.94,0-1.79,.68-2.09,1.65l-4.35,11.61-4.27-11.46c-.36-1.13-1.18-1.8-2.2-1.8-.02,0-.04,0-.05,0-.02,0-.04,0-.06,0-.94,0-1.79,.68-2.09,1.65l-4.35,11.61-4.27-11.46c-.36-1.13-1.18-1.8-2.2-1.8-1.23,0-2.22,1.14-2.22,2.54,0,.48,.12,.86,.23,1.15l6.02,15.46c.44,1.24,1.27,1.92,2.34,1.92h.16c1.09,0,1.93-.69,2.36-1.9l4.08-10.53,4.09,10.51c.44,1.24,1.27,1.92,2.34,1.92h.16c1.09,0,1.93-.69,2.36-1.9l6.06-15.61c.07-.2,.19-.61,.19-1.04,0-1.41-.97-2.51-2.2-2.51Z"/><path class="cls-2" d="M25.51,17.32c-1.1,0-2.1,.68-2.47,1.64l-5.27,11.71-5.17-11.56c-.43-1.13-1.4-1.8-2.59-1.8-1.45,0-2.63,1.16-2.63,2.58,0,.49,.14,.88,.28,1.19l7.22,15.46c.53,1.24,1.51,1.92,2.76,1.92h.19c1.28,0,2.27-.69,2.78-1.9l7.27-15.61c.09-.21,.24-.63,.24-1.08,0-1.43-1.14-2.55-2.6-2.55Z"/><path class="cls-2" d="M43.57,17.38c-5.88,0-10.65,4.77-10.65,10.65s4.77,10.65,10.65,10.65,10.65-4.77,10.65-10.65-4.77-10.65-10.65-10.65Zm0,16.45c-3.2,0-5.79-2.59-5.79-5.79s2.59-5.79,5.79-5.79,5.79,2.59,5.79,5.79-2.59,5.79-5.79,5.79Z"/></g></svg>