<?xml version="1.0" encoding="UTF-8"?><svg xmlns="http://www.w3.org/2000/svg" viewBox="0 0 96.48 78.85"><defs><style>.cls-1{fill:#f881a3;}.cls-2{fill:#0071ce;}.cls-3{fill:#fff;}.cls-4{fill:#e81f76;}.cls-5{fill:#87ade5;}.cls-6{mix-blend-mode:multiply;}.cls-7{isolation:isolate;}</style></defs><g class="cls-7"><g id="Layer_2"><g id="Layer_1-2"><g><path class="cls-2" d="M4.63,69.91S0,67.09,0,58.37V19.3S-.14,8.62,10.67,8.62H46.5s10.41-.77,10.41,10.41v26.02s-.19,11.18-11.18,11.18H16.86s-12.5,.18-12.24,13.68Z"/><path class="cls-4" d="M91.86,61.29s4.63-4.77,4.63-13.49c0-6.94,0-37.11,0-37.11,0,0,.14-10.67-10.67-10.67-8.13,0-6.94,0-47.88,0,0,0-7.57-.77-7.57,10.41,0,11.18,0,26.02,0,26.02,0,0,.19,11.18,11.18,11.18,12.88,0,11.69,0,33.15,0,0,0,15.59-1.11,17.17,13.68Z"/></g><path class="cls-1" d="M56.9,19.03c0-11.18-10.41-10.41-10.41-10.41H30.46c-.06,.56-.1,1.16-.1,1.79v26.02s.19,11.18,11.18,11.18h14.99c.35-1.49,.37-2.56,.37-2.56V19.03Z"/><g class="cls-6"><path class="cls-5" d="M17.63,59.67c-5.3,0-9.59,4.29-9.59,9.59s4.29,9.59,9.59,9.59,9.59-4.29,9.59-9.59-4.29-9.59-9.59-9.59Zm0,14.8c-2.88,0-5.21-2.33-5.21-5.21s2.33-5.21,5.21-5.21,5.21,2.33,5.21,5.21-2.33,5.21-5.21,5.21Z"/></g><g class="cls-6"><path class="cls-5" d="M74.82,51.7c-7.5,0-13.58,6.08-13.58,13.58s6.08,13.58,13.58,13.58,13.58-6.08,13.58-13.58-6.08-13.58-13.58-13.58Zm0,20.96c-4.08,0-7.38-3.31-7.38-7.38s3.31-7.38,7.38-7.38,7.38,3.31,7.38,7.38-3.31,7.38-7.38,7.38Z"/></g><path class="cls-3" d="M87.74,17.62c-.94,0-1.79,.68-2.09,1.65l-4.35,11.61-4.27-11.46c-.36-1.13-1.18-1.8-2.2-1.8-.02,0-.04,0-.05,0-.02,0-.04,0-.06,0-.94,0-1.79,.68-2.09,1.65l-4.35,11.61-4.27-11.46c-.36-1.13-1.18-1.8-2.2-1.8-1.23,0-2.22,1.14-2.22,2.54,0,.48,.12,.86,.23,1.15l6.02,15.46c.44,1.24,1.27,1.92,2.34,1.92h.16c1.09,0,1.93-.69,2.36-1.9l4.08-10.53,4.09,10.51c.44,1.24,1.27,1.92,2.34,1.92h.16c1.09,0,1.93-.69,2.36-1.9l6.06-15.61c.07-.2,.19-.61,.19-1.04,0-1.41-.97-2.51-2.2-2.51Z"/><path class="cls-3" d="M25.51,17.32c-1.1,0-2.1,.68-2.47,1.64l-5.27,11.71-5.17-11.56c-.43-1.13-1.4-1.8-2.59-1.8-1.45,0-2.63,1.16-2.63,2.58,0,.49,.14,.88,.28,1.19l7.22,15.46c.53,1.24,1.51,1.92,2.76,1.92h.19c1.28,0,2.27-.69,2.78-1.9l7.27-15.61c.09-.21,.24-.63,.24-1.08,0-1.43-1.14-2.55-2.6-2.55Z"/><path class="cls-3" d="M43.57,17.38c-5.88,0-10.65,4.77-10.65,10.65s4.77,10.65,10.65,10.65,10.65-4.77,10.65-10.65-4.77-10.65-10.65-10.65Zm0,16.45c-3.2,0-5.79-2.59-5.79-5.79s2.59-5.79,5.79-5.79,5.79,2.59,5.79,5.79-2.59,5.79-5.79,5.79Z"/></g></g></g></svg>